<mxfile host="app.diagrams.net" agent="Mozilla/5.0 (Windows NT 10.0; Win64; x64) AppleWebKit/537.36 (KHTML, like Gecko) Chrome/132.0.0.0 Safari/537.36" version="26.0.10">
  <diagram name="Page-1" id="Jwf4q3ze3CReX7V9NBJA">
    <mxGraphModel grid="0" page="1" gridSize="10" guides="1" tooltips="1" connect="1" arrows="1" fold="1" pageScale="1" pageWidth="850" pageHeight="1100" background="none" math="0" shadow="0">
      <root>
        <mxCell id="0" />
        <mxCell id="1" parent="0" />
        <mxCell id="QUykyPXU8g_mshZLJd2a-7" style="edgeStyle=orthogonalEdgeStyle;rounded=0;orthogonalLoop=1;jettySize=auto;html=1;exitX=0.817;exitY=0.006;exitDx=0;exitDy=0;exitPerimeter=0;entryX=0.12;entryY=0.001;entryDx=0;entryDy=0;entryPerimeter=0;fontFamily=Sarabun;fontSource=https%3A%2F%2Ffonts.googleapis.com%2Fcss%3Ffamily%3DSarabun;labelBackgroundColor=none;" edge="1" parent="1" source="QUykyPXU8g_mshZLJd2a-3" target="QUykyPXU8g_mshZLJd2a-1">
          <mxGeometry relative="1" as="geometry">
            <Array as="points">
              <mxPoint x="210" y="287" />
              <mxPoint x="640" y="287" />
            </Array>
            <mxPoint x="166.00800000000004" y="362.98" as="sourcePoint" />
            <mxPoint x="684" y="365" as="targetPoint" />
          </mxGeometry>
        </mxCell>
        <mxCell id="XxaZHWLwYrs8ErmouQr6-9" value="&lt;span style=&quot;color: rgb(0, 0, 0); font-size: 16px; font-style: normal; font-variant-ligatures: normal; font-variant-caps: normal; font-weight: 400; letter-spacing: normal; orphans: 2; text-align: left; text-indent: 0px; text-transform: none; widows: 2; word-spacing: 0px; -webkit-text-stroke-width: 0px; white-space: normal; text-decoration-thickness: initial; text-decoration-style: initial; text-decoration-color: initial; float: none; display: inline !important;&quot;&gt;กำหนดค่าพื้นฐาน&lt;/span&gt;" style="text;whiteSpace=wrap;html=1;labelBackgroundColor=none;fontFamily=Sarabun;fontSource=https%3A%2F%2Ffonts.googleapis.com%2Fcss%3Ffamily%3DSarabun;" vertex="1" parent="1">
          <mxGeometry x="348" y="261.99" width="152" height="25" as="geometry" />
        </mxCell>
        <mxCell id="QUykyPXU8g_mshZLJd2a-1" value="0" style="swimlane;fontStyle=0;fontFamily=Sarabun;fontSource=https%3A%2F%2Ffonts.googleapis.com%2Fcss%3Ffamily%3DSarabun;labelBackgroundColor=none;" vertex="1" parent="1">
          <mxGeometry x="618" y="366" width="186" height="104" as="geometry" />
        </mxCell>
        <mxCell id="XxaZHWLwYrs8ErmouQr6-1" value="&lt;p style=&quot;language:en-US;margin-top:0pt;margin-bottom:0pt;margin-left:0in;&lt;br/&gt;text-align:center;direction:ltr;unicode-bidi:embed;mso-line-break-override:&lt;br/&gt;none;word-break:normal;punctuation-wrap:hanging&quot;&gt;&lt;span style=&quot;&quot;&gt;เว็ปแอปพลิเคชันกำหนดค่าอุปกรณ์และ&lt;/span&gt;&lt;span style=&quot;color: light-dark(rgb(0, 0, 0), rgb(255, 255, 255));&quot;&gt;ตรวจสอบ&lt;/span&gt;&lt;span style=&quot;color: light-dark(rgb(0, 0, 0), rgb(255, 255, 255));&quot;&gt;ช่องโหว่&lt;/span&gt;&lt;span style=&quot;color: light-dark(rgb(0, 0, 0), rgb(255, 255, 255));&quot;&gt;ของการกำหนดค่า&lt;/span&gt;&lt;span style=&quot;color: light-dark(rgb(0, 0, 0), rgb(255, 255, 255));&quot;&gt;อุปกรณ์&lt;/span&gt;&lt;/p&gt;&lt;p style=&quot;language:en-US;margin-top:0pt;margin-bottom:0pt;margin-left:0in;&lt;br/&gt;text-align:center;direction:ltr;unicode-bidi:embed;mso-line-break-override:&lt;br/&gt;none;word-break:normal;punctuation-wrap:hanging&quot;&gt;&lt;span style=&quot;color: light-dark(rgb(0, 0, 0), rgb(255, 255, 255));&quot;&gt;เครือข่าย CISCO&lt;/span&gt;&lt;/p&gt;" style="text;whiteSpace=wrap;html=1;fontSize=14;fontFamily=Sarabun;fontSource=https%3A%2F%2Ffonts.googleapis.com%2Fcss%3Ffamily%3DSarabun;labelBackgroundColor=none;" vertex="1" parent="QUykyPXU8g_mshZLJd2a-1">
          <mxGeometry x="6" y="23" width="174" height="50" as="geometry" />
        </mxCell>
        <mxCell id="QUykyPXU8g_mshZLJd2a-5" style="edgeStyle=orthogonalEdgeStyle;rounded=0;orthogonalLoop=1;jettySize=auto;html=1;exitX=1;exitY=0;exitDx=0;exitDy=0;entryX=0;entryY=0;entryDx=0;entryDy=0;fontFamily=Sarabun;fontSource=https%3A%2F%2Ffonts.googleapis.com%2Fcss%3Ffamily%3DSarabun;labelBackgroundColor=none;" edge="1" parent="1" source="QUykyPXU8g_mshZLJd2a-3" target="QUykyPXU8g_mshZLJd2a-1">
          <mxGeometry relative="1" as="geometry" />
        </mxCell>
        <mxCell id="QUykyPXU8g_mshZLJd2a-6" style="edgeStyle=orthogonalEdgeStyle;rounded=0;orthogonalLoop=1;jettySize=auto;html=1;exitX=0.908;exitY=-0.004;exitDx=0;exitDy=0;exitPerimeter=0;entryX=0.06;entryY=-0.003;entryDx=0;entryDy=0;entryPerimeter=0;fontFamily=Sarabun;fontSource=https%3A%2F%2Ffonts.googleapis.com%2Fcss%3Ffamily%3DSarabun;labelBackgroundColor=none;" edge="1" parent="1" source="QUykyPXU8g_mshZLJd2a-3" target="QUykyPXU8g_mshZLJd2a-1">
          <mxGeometry relative="1" as="geometry">
            <Array as="points">
              <mxPoint x="221" y="316" />
              <mxPoint x="629" y="316" />
            </Array>
            <mxPoint x="221" y="365" as="sourcePoint" />
            <mxPoint x="629" y="347" as="targetPoint" />
          </mxGeometry>
        </mxCell>
        <mxCell id="QUykyPXU8g_mshZLJd2a-8" style="edgeStyle=orthogonalEdgeStyle;rounded=0;orthogonalLoop=1;jettySize=auto;html=1;exitX=0.724;exitY=-0.008;exitDx=0;exitDy=0;exitPerimeter=0;entryX=0.179;entryY=0;entryDx=0;entryDy=0;entryPerimeter=0;fontFamily=Sarabun;fontSource=https%3A%2F%2Ffonts.googleapis.com%2Fcss%3Ffamily%3DSarabun;labelBackgroundColor=none;" edge="1" parent="1" source="QUykyPXU8g_mshZLJd2a-3" target="QUykyPXU8g_mshZLJd2a-1">
          <mxGeometry relative="1" as="geometry">
            <Array as="points">
              <mxPoint x="199" y="257" />
              <mxPoint x="651" y="257" />
              <mxPoint x="651" y="345" />
              <mxPoint x="651" y="345" />
            </Array>
            <mxPoint x="651" y="365" as="targetPoint" />
          </mxGeometry>
        </mxCell>
        <mxCell id="QUykyPXU8g_mshZLJd2a-3" value="" style="rounded=0;whiteSpace=wrap;html=1;fontFamily=Sarabun;fontSource=https%3A%2F%2Ffonts.googleapis.com%2Fcss%3Ffamily%3DSarabun;labelBackgroundColor=none;" vertex="1" parent="1">
          <mxGeometry x="112" y="366" width="120" height="60" as="geometry" />
        </mxCell>
        <mxCell id="XxaZHWLwYrs8ErmouQr6-2" value="&lt;p style=&quot;language:en-US;margin-top:0pt;margin-bottom:0pt;margin-left:0in;&lt;br/&gt;text-align:center;direction:ltr;unicode-bidi:embed;mso-line-break-override:&lt;br/&gt;none;word-break:normal;punctuation-wrap:hanging&quot;&gt;&lt;span style=&quot;&quot;&gt;ผู้ใช้&lt;/span&gt;&lt;/p&gt;" style="text;whiteSpace=wrap;html=1;fontSize=16;fontFamily=Sarabun;fontSource=https%3A%2F%2Ffonts.googleapis.com%2Fcss%3Ffamily%3DSarabun;labelBackgroundColor=none;" vertex="1" parent="1">
          <mxGeometry x="151" y="376" width="32" height="27" as="geometry" />
        </mxCell>
        <mxCell id="XxaZHWLwYrs8ErmouQr6-3" value="&lt;span style=&quot;color: rgb(0, 0, 0); font-size: 16px; font-style: normal; font-variant-ligatures: normal; font-variant-caps: normal; font-weight: 400; letter-spacing: normal; orphans: 2; text-align: left; text-indent: 0px; text-transform: none; widows: 2; word-spacing: 0px; -webkit-text-stroke-width: 0px; white-space: normal; text-decoration-thickness: initial; text-decoration-style: initial; text-decoration-color: initial; float: none; display: inline !important;&quot;&gt;กำหนดค่าอุปกรณ์เริ่มต้น&lt;/span&gt;" style="text;whiteSpace=wrap;html=1;labelBackgroundColor=none;fontFamily=Sarabun;fontSource=https%3A%2F%2Ffonts.googleapis.com%2Fcss%3Ffamily%3DSarabun;" vertex="1" parent="1">
          <mxGeometry x="348" y="319" width="176" height="25" as="geometry" />
        </mxCell>
        <mxCell id="XxaZHWLwYrs8ErmouQr6-6" value="&lt;span style=&quot;color: rgb(0, 0, 0); font-size: 16px; font-style: normal; font-variant-ligatures: normal; font-variant-caps: normal; font-weight: 400; letter-spacing: normal; orphans: 2; text-align: left; text-indent: 0px; text-transform: none; widows: 2; word-spacing: 0px; -webkit-text-stroke-width: 0px; white-space: normal; text-decoration-thickness: initial; text-decoration-style: initial; text-decoration-color: initial; float: none; display: inline !important;&quot;&gt;เพิ่มอุปกรณ์&lt;/span&gt;" style="text;whiteSpace=wrap;html=1;labelBackgroundColor=none;fontFamily=Sarabun;fontSource=https%3A%2F%2Ffonts.googleapis.com%2Fcss%3Ffamily%3DSarabun;" vertex="1" parent="1">
          <mxGeometry x="348" y="290" width="148" height="25" as="geometry" />
        </mxCell>
        <mxCell id="XxaZHWLwYrs8ErmouQr6-11" value="&lt;span style=&quot;color: rgb(0, 0, 0); font-size: 16px; font-style: normal; font-variant-ligatures: normal; font-variant-caps: normal; font-weight: 400; letter-spacing: normal; orphans: 2; text-align: left; text-indent: 0px; text-transform: none; widows: 2; word-spacing: 0px; -webkit-text-stroke-width: 0px; white-space: normal; text-decoration-thickness: initial; text-decoration-style: initial; text-decoration-color: initial; float: none; display: inline !important;&quot;&gt;กำหนดค่า Interface&lt;/span&gt;" style="text;whiteSpace=wrap;html=1;labelBackgroundColor=none;fontFamily=Sarabun;fontSource=https%3A%2F%2Ffonts.googleapis.com%2Fcss%3Ffamily%3DSarabun;" vertex="1" parent="1">
          <mxGeometry x="348" y="231" width="158" height="25" as="geometry" />
        </mxCell>
        <mxCell id="XxaZHWLwYrs8ErmouQr6-15" style="edgeStyle=orthogonalEdgeStyle;rounded=0;orthogonalLoop=1;jettySize=auto;html=1;exitX=0.634;exitY=0.001;exitDx=0;exitDy=0;exitPerimeter=0;entryX=0.246;entryY=0.001;entryDx=0;entryDy=0;entryPerimeter=0;fontFamily=Sarabun;fontSource=https%3A%2F%2Ffonts.googleapis.com%2Fcss%3Ffamily%3DSarabun;labelBackgroundColor=none;" edge="1" parent="1" source="QUykyPXU8g_mshZLJd2a-3" target="QUykyPXU8g_mshZLJd2a-1">
          <mxGeometry relative="1" as="geometry">
            <Array as="points">
              <mxPoint x="188" y="365" />
              <mxPoint x="188" y="365" />
              <mxPoint x="188" y="228" />
              <mxPoint x="663" y="228" />
            </Array>
            <mxPoint x="188" y="365" as="sourcePoint" />
            <mxPoint x="663" y="364" as="targetPoint" />
          </mxGeometry>
        </mxCell>
        <mxCell id="XxaZHWLwYrs8ErmouQr6-16" value="&lt;span style=&quot;color: rgb(0, 0, 0); font-size: 16px; font-style: normal; font-variant-ligatures: normal; font-variant-caps: normal; font-weight: 400; letter-spacing: normal; orphans: 2; text-align: left; text-indent: 0px; text-transform: none; widows: 2; word-spacing: 0px; -webkit-text-stroke-width: 0px; white-space: normal; text-decoration-thickness: initial; text-decoration-style: initial; text-decoration-color: initial; float: none; display: inline !important;&quot;&gt;กำหนดค่า VLAN&lt;/span&gt;" style="text;whiteSpace=wrap;html=1;labelBackgroundColor=none;fontFamily=Sarabun;fontSource=https%3A%2F%2Ffonts.googleapis.com%2Fcss%3Ffamily%3DSarabun;" vertex="1" parent="1">
          <mxGeometry x="348" y="202" width="176" height="25" as="geometry" />
        </mxCell>
        <mxCell id="XxaZHWLwYrs8ErmouQr6-23" style="edgeStyle=orthogonalEdgeStyle;rounded=0;orthogonalLoop=1;jettySize=auto;html=1;entryX=0.31;entryY=0;entryDx=0;entryDy=0;entryPerimeter=0;fontFamily=Sarabun;fontSource=https%3A%2F%2Ffonts.googleapis.com%2Fcss%3Ffamily%3DSarabun;labelBackgroundColor=none;" edge="1" parent="1" target="QUykyPXU8g_mshZLJd2a-1">
          <mxGeometry relative="1" as="geometry">
            <Array as="points">
              <mxPoint x="177" y="199" />
              <mxPoint x="675" y="199" />
            </Array>
            <mxPoint x="177" y="366" as="sourcePoint" />
            <mxPoint x="761" y="324" as="targetPoint" />
          </mxGeometry>
        </mxCell>
        <mxCell id="XxaZHWLwYrs8ErmouQr6-22" value="&lt;span style=&quot;color: rgb(0, 0, 0); font-size: 16px; font-style: normal; font-variant-ligatures: normal; font-variant-caps: normal; font-weight: 400; letter-spacing: normal; orphans: 2; text-align: left; text-indent: 0px; text-transform: none; widows: 2; word-spacing: 0px; -webkit-text-stroke-width: 0px; white-space: normal; text-decoration-thickness: initial; text-decoration-style: initial; text-decoration-color: initial; float: none; display: inline !important;&quot;&gt;กำหนดค่า Management&lt;/span&gt;" style="text;whiteSpace=wrap;html=1;labelBackgroundColor=none;fontFamily=Sarabun;fontSource=https%3A%2F%2Ffonts.googleapis.com%2Fcss%3Ffamily%3DSarabun;" vertex="1" parent="1">
          <mxGeometry x="348" y="173" width="192" height="25" as="geometry" />
        </mxCell>
        <mxCell id="XxaZHWLwYrs8ErmouQr6-24" style="edgeStyle=orthogonalEdgeStyle;rounded=0;orthogonalLoop=1;jettySize=auto;html=1;exitX=0.457;exitY=-0.001;exitDx=0;exitDy=0;exitPerimeter=0;fontFamily=Sarabun;fontSource=https%3A%2F%2Ffonts.googleapis.com%2Fcss%3Ffamily%3DSarabun;labelBackgroundColor=none;" edge="1" parent="1" source="QUykyPXU8g_mshZLJd2a-3">
          <mxGeometry relative="1" as="geometry">
            <Array as="points">
              <mxPoint x="167" y="170" />
              <mxPoint x="686" y="170" />
              <mxPoint x="686" y="344" />
            </Array>
            <mxPoint x="167" y="365" as="sourcePoint" />
            <mxPoint x="686" y="366" as="targetPoint" />
          </mxGeometry>
        </mxCell>
        <mxCell id="XxaZHWLwYrs8ErmouQr6-25" value="&lt;span style=&quot;color: rgb(0, 0, 0); font-size: 16px; font-style: normal; font-variant-ligatures: normal; font-variant-caps: normal; font-weight: 400; letter-spacing: normal; orphans: 2; text-align: left; text-indent: 0px; text-transform: none; widows: 2; word-spacing: 0px; -webkit-text-stroke-width: 0px; white-space: normal; text-decoration-thickness: initial; text-decoration-style: initial; text-decoration-color: initial; float: none; display: inline !important;&quot;&gt;กำหนดค่า Spanning-Tree&lt;/span&gt;" style="text;whiteSpace=wrap;html=1;labelBackgroundColor=none;fontFamily=Sarabun;fontSource=https%3A%2F%2Ffonts.googleapis.com%2Fcss%3Ffamily%3DSarabun;" vertex="1" parent="1">
          <mxGeometry x="348" y="144" width="192" height="25" as="geometry" />
        </mxCell>
        <mxCell id="XxaZHWLwYrs8ErmouQr6-27" style="edgeStyle=orthogonalEdgeStyle;rounded=0;orthogonalLoop=1;jettySize=auto;html=1;exitX=0.363;exitY=-0.004;exitDx=0;exitDy=0;exitPerimeter=0;fontFamily=Sarabun;fontSource=https%3A%2F%2Ffonts.googleapis.com%2Fcss%3Ffamily%3DSarabun;labelBackgroundColor=none;" edge="1" parent="1" source="QUykyPXU8g_mshZLJd2a-3">
          <mxGeometry relative="1" as="geometry">
            <Array as="points">
              <mxPoint x="156" y="141" />
              <mxPoint x="697" y="141" />
              <mxPoint x="697" y="326" />
              <mxPoint x="697" y="326" />
            </Array>
            <mxPoint x="140" y="366" as="sourcePoint" />
            <mxPoint x="697" y="366" as="targetPoint" />
          </mxGeometry>
        </mxCell>
        <mxCell id="XxaZHWLwYrs8ErmouQr6-28" value="&lt;span style=&quot;color: rgb(0, 0, 0); font-size: 16px; font-style: normal; font-variant-ligatures: normal; font-variant-caps: normal; font-weight: 400; letter-spacing: normal; orphans: 2; text-align: left; text-indent: 0px; text-transform: none; widows: 2; word-spacing: 0px; -webkit-text-stroke-width: 0px; white-space: normal; text-decoration-thickness: initial; text-decoration-style: initial; text-decoration-color: initial; float: none; display: inline !important;&quot;&gt;กำหนดค่า aggregation&amp;nbsp;&lt;/span&gt;" style="text;whiteSpace=wrap;html=1;labelBackgroundColor=none;fontFamily=Sarabun;fontSource=https%3A%2F%2Ffonts.googleapis.com%2Fcss%3Ffamily%3DSarabun;" vertex="1" parent="1">
          <mxGeometry x="348.4" y="115" width="163.6" height="25" as="geometry" />
        </mxCell>
        <mxCell id="XxaZHWLwYrs8ErmouQr6-29" style="edgeStyle=orthogonalEdgeStyle;rounded=0;orthogonalLoop=1;jettySize=auto;html=1;exitX=0.275;exitY=0.003;exitDx=0;exitDy=0;exitPerimeter=0;fontFamily=Sarabun;fontSource=https%3A%2F%2Ffonts.googleapis.com%2Fcss%3Ffamily%3DSarabun;labelBackgroundColor=none;entryX=0.489;entryY=-0.004;entryDx=0;entryDy=0;entryPerimeter=0;" edge="1" parent="1" source="QUykyPXU8g_mshZLJd2a-3" target="QUykyPXU8g_mshZLJd2a-1">
          <mxGeometry relative="1" as="geometry">
            <Array as="points">
              <mxPoint x="145" y="112" />
              <mxPoint x="709" y="112" />
            </Array>
            <mxPoint x="128" y="366" as="sourcePoint" />
            <mxPoint x="707" y="362" as="targetPoint" />
          </mxGeometry>
        </mxCell>
        <mxCell id="XxaZHWLwYrs8ErmouQr6-30" value="&lt;span style=&quot;color: rgb(0, 0, 0); font-size: 16px; font-style: normal; font-variant-ligatures: normal; font-variant-caps: normal; font-weight: 400; letter-spacing: normal; orphans: 2; text-align: left; text-indent: 0px; text-transform: none; widows: 2; word-spacing: 0px; -webkit-text-stroke-width: 0px; white-space: normal; text-decoration-thickness: initial; text-decoration-style: initial; text-decoration-color: initial; float: none; display: inline !important;&quot;&gt;กำหนดค่า Routing Protocols ต่างๆ&lt;/span&gt;" style="text;whiteSpace=wrap;html=1;labelBackgroundColor=none;fontFamily=Sarabun;fontSource=https%3A%2F%2Ffonts.googleapis.com%2Fcss%3Ffamily%3DSarabun;" vertex="1" parent="1">
          <mxGeometry x="301" y="86" width="249" height="25" as="geometry" />
        </mxCell>
        <mxCell id="XxaZHWLwYrs8ErmouQr6-34" style="edgeStyle=orthogonalEdgeStyle;rounded=0;orthogonalLoop=1;jettySize=auto;html=1;exitX=0.183;exitY=-0.003;exitDx=0;exitDy=0;exitPerimeter=0;fontFamily=Sarabun;fontSource=https%3A%2F%2Ffonts.googleapis.com%2Fcss%3Ffamily%3DSarabun;labelBackgroundColor=none;" edge="1" parent="1" source="QUykyPXU8g_mshZLJd2a-3">
          <mxGeometry relative="1" as="geometry">
            <Array as="points">
              <mxPoint x="134" y="83" />
              <mxPoint x="720" y="83" />
              <mxPoint x="720" y="359" />
            </Array>
            <mxPoint x="134" y="365" as="sourcePoint" />
            <mxPoint x="720" y="366" as="targetPoint" />
          </mxGeometry>
        </mxCell>
        <mxCell id="XxaZHWLwYrs8ErmouQr6-35" value="&lt;span style=&quot;color: rgb(0, 0, 0); font-size: 16px; font-style: normal; font-variant-ligatures: normal; font-variant-caps: normal; font-weight: 400; letter-spacing: normal; orphans: 2; text-align: left; text-indent: 0px; text-transform: none; widows: 2; word-spacing: 0px; -webkit-text-stroke-width: 0px; white-space: normal; text-decoration-thickness: initial; text-decoration-style: initial; text-decoration-color: initial; float: none; display: inline !important;&quot;&gt;คืนค่าโรงงาน หรือ รีเซ็ตอุปกรณ์&lt;/span&gt;" style="text;whiteSpace=wrap;html=1;labelBackgroundColor=none;fontFamily=Sarabun;fontSource=https%3A%2F%2Ffonts.googleapis.com%2Fcss%3Ffamily%3DSarabun;" vertex="1" parent="1">
          <mxGeometry x="326.4" y="56" width="208.6" height="25" as="geometry" />
        </mxCell>
        <mxCell id="XxaZHWLwYrs8ErmouQr6-38" style="edgeStyle=orthogonalEdgeStyle;rounded=0;orthogonalLoop=1;jettySize=auto;html=1;exitX=0.082;exitY=0.002;exitDx=0;exitDy=0;exitPerimeter=0;fontFamily=Sarabun;fontSource=https%3A%2F%2Ffonts.googleapis.com%2Fcss%3Ffamily%3DSarabun;labelBackgroundColor=none;entryX=0.614;entryY=-0.003;entryDx=0;entryDy=0;entryPerimeter=0;" edge="1" parent="1" source="QUykyPXU8g_mshZLJd2a-3" target="QUykyPXU8g_mshZLJd2a-1">
          <mxGeometry relative="1" as="geometry">
            <Array as="points">
              <mxPoint x="122" y="54" />
              <mxPoint x="732" y="54" />
              <mxPoint x="732" y="360" />
              <mxPoint x="732" y="360" />
            </Array>
            <mxPoint x="116" y="354" as="sourcePoint" />
            <mxPoint x="733" y="360" as="targetPoint" />
          </mxGeometry>
        </mxCell>
        <mxCell id="XxaZHWLwYrs8ErmouQr6-36" value="&lt;span style=&quot;color: rgb(0, 0, 0); font-size: 16px; font-style: normal; font-variant-ligatures: normal; font-variant-caps: normal; font-weight: 400; letter-spacing: normal; orphans: 2; text-align: left; text-indent: 0px; text-transform: none; widows: 2; word-spacing: 0px; -webkit-text-stroke-width: 0px; white-space: normal; text-decoration-thickness: initial; text-decoration-style: initial; text-decoration-color: initial; float: none; display: inline !important;&quot;&gt;ตรวจสอบประเภทรายละเอียดอุปกรณ์&lt;/span&gt;" style="text;whiteSpace=wrap;html=1;labelBackgroundColor=none;fontFamily=Sarabun;fontSource=https%3A%2F%2Ffonts.googleapis.com%2Fcss%3Ffamily%3DSarabun;" vertex="1" parent="1">
          <mxGeometry x="304" y="26" width="289.6" height="25" as="geometry" />
        </mxCell>
        <mxCell id="XxaZHWLwYrs8ErmouQr6-42" style="edgeStyle=orthogonalEdgeStyle;rounded=0;orthogonalLoop=1;jettySize=auto;html=1;entryX=0.75;entryY=1;entryDx=0;entryDy=0;exitX=0.25;exitY=1;exitDx=0;exitDy=0;fontFamily=Sarabun;fontSource=https%3A%2F%2Ffonts.googleapis.com%2Fcss%3Ffamily%3DSarabun;labelBackgroundColor=none;" edge="1" parent="1" source="QUykyPXU8g_mshZLJd2a-1" target="QUykyPXU8g_mshZLJd2a-3">
          <mxGeometry relative="1" as="geometry">
            <mxPoint x="617" y="506" as="sourcePoint" />
            <mxPoint x="615" y="494" as="targetPoint" />
          </mxGeometry>
        </mxCell>
        <mxCell id="XxaZHWLwYrs8ErmouQr6-43" value="&lt;font&gt;&lt;span style=&quot;font-size: 16px;&quot;&gt;เเสดงค่าการตั้งค่าของตัวอุปกรณ์&lt;/span&gt;&lt;/font&gt;" style="text;whiteSpace=wrap;html=1;labelBackgroundColor=none;fontFamily=Sarabun;fontSource=https%3A%2F%2Ffonts.googleapis.com%2Fcss%3Ffamily%3DSarabun;" vertex="1" parent="1">
          <mxGeometry x="338.1" y="465" width="221.4" height="25" as="geometry" />
        </mxCell>
        <mxCell id="XxaZHWLwYrs8ErmouQr6-44" style="edgeStyle=orthogonalEdgeStyle;rounded=0;orthogonalLoop=1;jettySize=auto;html=1;entryX=0.5;entryY=1;entryDx=0;entryDy=0;exitX=0.5;exitY=1;exitDx=0;exitDy=0;fontFamily=Sarabun;fontSource=https%3A%2F%2Ffonts.googleapis.com%2Fcss%3Ffamily%3DSarabun;labelBackgroundColor=none;" edge="1" parent="1" source="QUykyPXU8g_mshZLJd2a-1" target="QUykyPXU8g_mshZLJd2a-3">
          <mxGeometry relative="1" as="geometry">
            <mxPoint x="674" y="480" as="sourcePoint" />
            <mxPoint x="212" y="436" as="targetPoint" />
            <Array as="points">
              <mxPoint x="710" y="521" />
              <mxPoint x="172" y="521" />
            </Array>
          </mxGeometry>
        </mxCell>
        <mxCell id="XxaZHWLwYrs8ErmouQr6-46" value="&lt;span style=&quot;font-size: 16px;&quot;&gt;เเสดงค่าการตั้งค่าของตัวอุปกรณ์&lt;/span&gt;" style="text;whiteSpace=wrap;html=1;labelBackgroundColor=none;fontFamily=Sarabun;fontSource=https%3A%2F%2Ffonts.googleapis.com%2Fcss%3Ffamily%3DSarabun;" vertex="1" parent="1">
          <mxGeometry x="338.1" y="496" width="226.4" height="25" as="geometry" />
        </mxCell>
        <mxCell id="XxaZHWLwYrs8ErmouQr6-47" style="edgeStyle=orthogonalEdgeStyle;rounded=0;orthogonalLoop=1;jettySize=auto;html=1;entryX=0.25;entryY=1;entryDx=0;entryDy=0;exitX=0.75;exitY=1;exitDx=0;exitDy=0;fontFamily=Sarabun;fontSource=https%3A%2F%2Ffonts.googleapis.com%2Fcss%3Ffamily%3DSarabun;labelBackgroundColor=none;" edge="1" parent="1" source="QUykyPXU8g_mshZLJd2a-1" target="QUykyPXU8g_mshZLJd2a-3">
          <mxGeometry relative="1" as="geometry">
            <mxPoint x="726.79" y="497" as="sourcePoint" />
            <mxPoint x="188.79" y="453" as="targetPoint" />
            <Array as="points">
              <mxPoint x="754" y="470" />
              <mxPoint x="754" y="550" />
              <mxPoint x="142" y="550" />
            </Array>
          </mxGeometry>
        </mxCell>
        <mxCell id="XxaZHWLwYrs8ErmouQr6-49" value="&lt;font&gt;&lt;span style=&quot;font-size: 16px;&quot;&gt;เเสดงค่าที่กำหนดหนดที่อาจเป็นช่องโหว่&lt;/span&gt;&lt;/font&gt;" style="text;whiteSpace=wrap;html=1;labelBackgroundColor=none;fontFamily=Sarabun;fontSource=https%3A%2F%2Ffonts.googleapis.com%2Fcss%3Ffamily%3DSarabun;" vertex="1" parent="1">
          <mxGeometry x="338.1" y="525" width="261.4" height="25" as="geometry" />
        </mxCell>
        <mxCell id="XxaZHWLwYrs8ErmouQr6-50" value="0" style="swimlane;fontStyle=0;fontFamily=Sarabun;fontSource=https%3A%2F%2Ffonts.googleapis.com%2Fcss%3Ffamily%3DSarabun;" vertex="1" parent="1">
          <mxGeometry x="366.3" y="1377" width="183" height="104" as="geometry" />
        </mxCell>
        <mxCell id="XxaZHWLwYrs8ErmouQr6-51" value="&lt;p style=&quot;language:en-US;margin-top:0pt;margin-bottom:0pt;margin-left:0in;&lt;br/&gt;text-align:center;direction:ltr;unicode-bidi:embed;mso-line-break-override:&lt;br/&gt;none;word-break:normal;punctuation-wrap:hanging&quot;&gt;&lt;span style=&quot;font-family: &amp;quot;TH Sarabun New&amp;quot;; background-color: initial;&quot;&gt;&lt;span style=&quot;white-space: pre;&quot;&gt;&#x9;&lt;/span&gt;เว็ปแอปพลิเคชันกำหนดค่าอุปกรณ์และ&lt;/span&gt;&lt;/p&gt;&lt;p style=&quot;language:en-US;margin-top:0pt;margin-bottom:0pt;margin-left:0in;&lt;br/&gt;text-align:center;direction:ltr;unicode-bidi:embed;mso-line-break-override:&lt;br/&gt;none;word-break:normal;punctuation-wrap:hanging&quot;&gt;&lt;span style=&quot;font-family: &amp;quot;TH Sarabun New&amp;quot;; background-color: initial;&quot;&gt;&lt;span style=&quot;white-space: pre;&quot;&gt;&#x9;&lt;/span&gt;ตรวจสอบ&lt;/span&gt;&lt;span style=&quot;background-color: initial; font-family: &amp;quot;TH Sarabun New&amp;quot;;&quot;&gt;ช่องโหว่&lt;/span&gt;&lt;span style=&quot;background-color: initial; font-family: &amp;quot;TH Sarabun New&amp;quot;;&quot;&gt;ของการกำหนดค่า&lt;/span&gt;&lt;/p&gt;&lt;p style=&quot;language:en-US;margin-top:0pt;margin-bottom:0pt;margin-left:0in;&lt;br/&gt;text-align:center;direction:ltr;unicode-bidi:embed;mso-line-break-override:&lt;br/&gt;none;word-break:normal;punctuation-wrap:hanging&quot;&gt;&lt;span style=&quot;background-color: initial; font-family: &amp;quot;TH Sarabun New&amp;quot;;&quot;&gt;&lt;span style=&quot;white-space: pre;&quot;&gt;&#x9;&lt;/span&gt;&lt;span style=&quot;white-space: pre;&quot;&gt;&#x9;&lt;/span&gt;อุปกรณ์เครือข่าย CISCO&lt;/span&gt;&lt;/p&gt;" style="text;whiteSpace=wrap;html=1;fontSize=16;fontFamily=Sarabun;fontSource=https%3A%2F%2Ffonts.googleapis.com%2Fcss%3Ffamily%3DSarabun;" vertex="1" parent="XxaZHWLwYrs8ErmouQr6-50">
          <mxGeometry x="-17" y="24" width="193" height="50" as="geometry" />
        </mxCell>
      </root>
    </mxGraphModel>
  </diagram>
</mxfile>
